<svg width="0" height="0" class="hidden">
  <symbol version="1.0" xmlns="http://www.w3.org/2000/svg" preserveAspectRatio="xMidYMid meet" viewBox="0 0 835.000000 289.000000" id="car-image">
    <g transform="translate(0.000000,289.000000) scale(0.100000,-0.100000)" stroke="none">
      <path d="M2935 2869 c-429 -21 -651 -62 -1011 -187 -218 -76 -404 -159 -623
-279 -276 -149 -361 -179 -586 -203 -344 -36 -448 -58 -512 -106 -18 -14 -33
-34 -33 -44 0 -22 11 -25 105 -35 54 -6 64 -11 100 -49 76 -79 143 -212 125
-247 -16 -29 -104 -50 -240 -56 -162 -7 -167 -10 -174 -70 -10 -77 -27 -144
-52 -198 -30 -63 -30 -91 1 -245 13 -69 25 -154 25 -190 0 -120 41 -159 210
-199 91 -22 454 -76 581 -87 70 -6 78 -5 98 15 16 16 21 33 21 74 0 69 32 181
76 270 106 209 280 353 511 424 78 23 105 26 228 26 112 0 156 -4 218 -21 249
-68 467 -285 558 -553 24 -72 29 -103 29 -182 0 -53 4 -98 9 -101 28 -18 647
-37 1841 -56 681 -11 1256 -27 1410 -39 52 -4 96 -7 98 -6 1 1 7 56 12 121 25
301 94 463 265 622 160 148 331 215 550 215 196 1 362 -55 512 -170 116 -88
185 -181 243 -327 61 -155 82 -289 66 -423 l-8 -63 29 5 c15 3 100 16 188 29
260 40 477 103 492 143 10 26 -15 36 -111 44 -114 10 -162 22 -207 52 -42 28
-116 146 -99 157 6 4 59 10 117 13 124 8 309 34 335 48 24 13 24 70 -1 191
-39 190 -109 330 -210 421 -132 119 -620 278 -1146 372 -187 33 -784 107 -812
100 -16 -4 -22 -12 -20 -28 6 -58 -92 -20 -398 156 -411 235 -798 481 -852
539 -24 27 -48 40 -95 52 -143 37 -332 59 -648 76 -211 11 -975 11 -1215 -1z
m805 -132 c36 -18 46 -65 69 -334 12 -131 23 -253 24 -270 l3 -33 -636 0 -636
0 18 241 c23 318 29 338 106 358 33 9 390 36 577 44 208 9 451 6 475 -6z m680
-38 c385 -65 902 -320 1262 -621 48 -40 87 -76 88 -80 0 -5 -23 -8 -50 -8
-159 0 -1616 82 -1625 92 -6 6 -113 541 -115 578 -4 44 -1 49 33 60 48 14 263
4 407 -21z m-1987 -76 c2 -5 -2 -69 -9 -143 -7 -74 -16 -190 -20 -257 l-7
-123 -217 0 -217 0 -67 96 c-36 52 -66 101 -66 108 0 18 78 88 147 132 81 53
252 133 352 165 96 32 98 32 104 22z m5609 -1063 c40 0 129 -110 205 -252 2
-5 -113 -8 -255 -8 l-260 0 -61 89 c-34 49 -61 97 -61 105 0 22 28 31 151 50
130 20 184 24 229 20 19 -2 43 -4 52 -4z"></path>
      <path d="M1665 1319 c-250 -42 -443 -206 -521 -446 -25 -77 -29 -102 -29 -203
1 -102 4 -125 31 -201 94 -267 325 -443 600 -457 277 -14 521 132 640 383 68
143 74 358 14 519 -47 124 -205 292 -335 356 -96 47 -278 70 -400 49z m224
-200 c144 -33 281 -152 325 -283 20 -58 23 -220 5 -292 -31 -125 -111 -219
-243 -285 -134 -66 -238 -68 -379 -9 -179 75 -277 218 -277 404 0 272 192 474
450 475 41 0 95 -4 119 -10z"></path>
      <path d="M6669 1320 c-147 -23 -263 -82 -364 -184 -156 -158 -220 -394 -170
-631 60 -283 341 -495 654 -495 187 0 331 60 461 190 130 130 191 279 191 470
0 295 -173 537 -450 630 -74 24 -232 34 -322 20z m164 -190 c96 -14 186 -58
258 -127 109 -103 149 -193 150 -330 0 -88 -12 -145 -43 -208 -60 -117 -132
-176 -283 -233 -80 -31 -98 -34 -163 -30 -158 10 -335 141 -395 292 -113 281
54 586 346 635 29 5 54 9 57 10 3 0 35 -4 73 -9z"></path>
    </g>
  </symbol>
</svg>
