<?xml version="1.0" standalone="no"?>
<!DOCTYPE svg PUBLIC "-//W3C//DTD SVG 20010904//EN"
 "http://www.w3.org/TR/2001/REC-SVG-20010904/DTD/svg10.dtd">
<svg version="1.0" xmlns="http://www.w3.org/2000/svg"
 width="330.000000pt" height="330.000000pt" viewBox="0 0 330.000000 330.000000"
 preserveAspectRatio="xMidYMid meet">

<g transform="translate(0.000000,330.000000) scale(0.100000,-0.100000)"
fill="#000000" stroke="none">
<path d="M163 3145 c-38 -26 -37 -92 1 -117 6 -4 86 -8 177 -8 l167 0 9 -37
c10 -38 113 -407 178 -638 67 -239 168 -603 204 -737 l38 -136 -46 -34 c-163
-122 -135 -375 51 -459 l53 -24 920 -5 920 -5 53 -29 c29 -17 69 -48 88 -70
20 -23 45 -51 56 -63 28 -32 71 -30 97 3 30 38 26 66 -17 121 -82 103 -186
165 -308 183 -42 6 -411 10 -927 10 -935 0 -893 -3 -932 57 -23 35 -24 101 -1
135 40 61 -4 58 1009 58 1044 0 958 -7 978 80 10 42 29 136 168 809 28 135 51
253 51 263 0 10 -9 27 -20 38 -20 20 -33 20 -1183 20 l-1163 0 -58 208 c-99
357 -103 367 -131 380 -41 19 -404 16 -432 -3z m2827 -728 c0 -1 -20 -101 -45
-222 -25 -121 -66 -319 -91 -440 -25 -121 -47 -230 -51 -242 l-5 -23 -858 0
c-809 0 -859 1 -864 18 -6 19 -60 212 -166 597 -39 143 -75 272 -80 288 l-9
27 1085 0 c596 0 1084 -1 1084 -3z"/>
<path d="M1235 875 c-78 -31 -155 -112 -181 -187 -52 -154 16 -323 161 -393
221 -109 483 66 462 309 -7 83 -37 148 -97 206 -92 90 -223 115 -345 65z m203
-136 c115 -56 134 -202 36 -288 -82 -72 -189 -63 -257 22 -38 46 -49 135 -24
183 48 93 151 128 245 83z"/>
<path d="M2574 879 c-233 -89 -274 -418 -71 -558 163 -112 389 -57 477 116 21
41 25 62 25 143 0 81 -4 102 -25 144 -73 143 -256 213 -406 155z m223 -155
c47 -39 73 -88 73 -142 0 -45 -26 -106 -57 -134 -24 -22 -86 -48 -115 -48
-110 0 -202 106 -183 209 23 130 182 195 282 115z"/>
</g>
</svg>
