<?xml version="1.0" standalone="no"?>
<!DOCTYPE svg PUBLIC "-//W3C//DTD SVG 20010904//EN"
 "http://www.w3.org/TR/2001/REC-SVG-20010904/DTD/svg10.dtd">
<svg version="1.0" xmlns="http://www.w3.org/2000/svg"
 width="200.000000pt" height="200.000000pt" viewBox="0 0 200.000000 200.000000"
 preserveAspectRatio="xMidYMid meet">

<g transform="translate(0.000000,200.000000) scale(0.100000,-0.100000)"
fill="#000000" stroke="none">
<path d="M608 1620 c-45 -14 -83 -47 -103 -89 l-18 -41 -142 0 c-118 0 -145
-3 -156 -16 -9 -11 -10 -20 -2 -32 9 -14 33 -17 156 -20 135 -2 146 -4 152
-22 9 -30 54 -79 86 -95 15 -8 52 -15 82 -15 44 0 62 6 95 29 24 18 46 44 53
65 l13 36 487 0 c432 0 488 2 500 16 9 11 10 20 2 32 -9 15 -55 17 -496 20
l-487 2 -19 38 c-41 80 -121 117 -203 92z m130 -107 c27 -43 21 -91 -16 -124
-44 -40 -93 -39 -133 0 -38 38 -39 87 -4 130 41 48 119 45 153 -6z"/>
<path d="M1365 1156 c-34 -15 -80 -64 -90 -96 -6 -20 -15 -20 -535 -20 -467 0
-530 -2 -544 -16 -20 -19 -20 -29 0 -48 14 -14 77 -16 543 -16 l527 0 17 -34
c8 -19 33 -47 53 -63 32 -24 47 -28 99 -28 52 0 67 4 99 28 20 16 45 44 53 63
l17 34 92 0 c71 0 96 4 108 16 9 8 16 19 16 24 0 5 -7 16 -16 24 -12 12 -37
16 -108 16 l-92 0 -17 34 c-25 53 -79 89 -140 93 -30 2 -65 -2 -82 -11z m115
-71 c35 -18 50 -43 50 -85 0 -42 -15 -67 -52 -86 -65 -34 -138 11 -138 85 0
79 70 122 140 86z"/>
<path d="M825 694 c-44 -23 -63 -43 -77 -80 l-12 -34 -267 0 c-231 0 -268 -2
-280 -16 -9 -11 -10 -20 -2 -32 9 -15 41 -17 277 -20 243 -2 267 -4 273 -20
14 -39 59 -86 101 -104 82 -37 180 1 218 84 l17 38 365 2 c328 3 366 5 375 20
8 12 7 21 -2 32 -12 14 -58 16 -377 16 l-364 0 -11 28 c-13 34 -46 70 -81 88
-36 19 -116 18 -153 -2z m146 -83 c39 -40 40 -89 1 -132 -73 -82 -204 5 -157
104 30 63 107 77 156 28z"/>
</g>
</svg>
